HIERARCHY
ROOT Hips
{
    OFFSET 0.000000 0.000000 0.000000
    CHANNELS 6 Xposition Yposition Zposition Zrotation Xrotation Yrotation
    JOINT Spine
    {
        OFFSET -0.000000 7.236184 0.000000
        CHANNELS 3 Zrotation Xrotation Yrotation
        JOINT Spine1
        {
            OFFSET -0.000000 20.420147 0.000000
            CHANNELS 3 Zrotation Xrotation Yrotation
            JOINT Neck
            {
                OFFSET -0.000000 20.336288 1.848754
                CHANNELS 3 Zrotation Xrotation Yrotation
                JOINT Head
                {
                    OFFSET -0.000000 12.354461 -1.764923
                    CHANNELS 3 Zrotation Xrotation Yrotation
                    End Site
                    {
                        OFFSET -0.000000 22.061537 0.000000
                    }
                }
            }
            JOINT LeftShoulder
            {
                OFFSET 3.573296 18.396038 -0.314103
                CHANNELS 3 Zrotation Xrotation Yrotation
                JOINT LeftArm
                {
                    OFFSET 10.880760 0.000000 0.000000
                    CHANNELS 3 Zrotation Xrotation Yrotation
                    JOINT LeftForeArm
                    {
                        OFFSET 27.185530 0.000000 0.000000
                        CHANNELS 3 Zrotation Xrotation Yrotation
                        JOINT LeftHand
                        {
                            OFFSET 27.825975 0.000000 0.000000
                            CHANNELS 3 Zrotation Xrotation Yrotation
                            End Site
                            {
                                OFFSET 13.236923 0.000000 0.000000
                            }
                        }
                    }
                }
            }
            JOINT RightShoulder
            {
                OFFSET -3.474926 18.396038 -0.314103
                CHANNELS 3 Zrotation Xrotation Yrotation
                JOINT RightArm
                {
                    OFFSET -10.880760 0.000000 0.000000
                    CHANNELS 3 Zrotation Xrotation Yrotation
                    JOINT RightForeArm
                    {
                        OFFSET -27.185530 0.000000 0.000000
                        CHANNELS 3 Zrotation Xrotation Yrotation
                        JOINT RightHand
                        {
                            OFFSET -27.825975 0.000000 0.000000
                            CHANNELS 3 Zrotation Xrotation Yrotation
                            End Site
                            {
                                OFFSET -13.236923 0.000000 0.000000
                            }
                        }
                    }
                }
            }
        }
    }
    JOINT LeftUpLeg
    {
        OFFSET 8.824615 0.000000 0.000000
        CHANNELS 3 Zrotation Xrotation Yrotation
        JOINT LeftLeg
        {
            OFFSET -0.000000 -35.111282 0.000000
            CHANNELS 3 Zrotation Xrotation Yrotation
            JOINT LeftFoot
            {
                OFFSET -0.000000 -42.324711 0.000000
                CHANNELS 3 Zrotation Xrotation Yrotation
                JOINT LeftToeBase
                {
                    OFFSET -0.000000 -5.735999 13.236923
                    CHANNELS 3 Zrotation Xrotation Yrotation
                    End Site
                    {
                        OFFSET -0.000000 0.000000 3.529846
                    }
                }
            }
        }
    }
    JOINT RightUpLeg
    {
        OFFSET -8.824615 0.000000 0.000000
        CHANNELS 3 Zrotation Xrotation Yrotation
        JOINT RightLeg
        {
            OFFSET -0.000000 -35.111282 0.000000
            CHANNELS 3 Zrotation Xrotation Yrotation
            JOINT RightFoot
            {
                OFFSET -0.000000 -42.324711 0.000000
                CHANNELS 3 Zrotation Xrotation Yrotation
                JOINT RightToeBase
                {
                    OFFSET -0.000000 -5.735999 13.236923
                    CHANNELS 3 Zrotation Xrotation Yrotation
                    End Site
                    {
                        OFFSET -0.000000 0.000000 3.529846
                    }
                }
            }
        }
    }
}
MOTION
Frames:    13
Frame Time:    0.008333
12.322971    86.059799    91.767067    26.635506    47.056618    -102.447456    0.404895    -4.370647    0.777479    14.613952    11.079294    -0.663022    5.256879    14.919187    -25.847567    31.188026    2.744340    -23.604887    7.058043    6.568792    -15.732366    -21.615273    21.595844    -69.785721    34.595505    -9.744369    -71.144096    64.765228    -5.730700    -33.169533    9.041471    12.382710    -4.015764    44.402485    -7.566677    25.610550    -9.690629    -27.421366    2.764803    -29.811047    -26.269855    -3.966427    58.981129    -42.321991    31.938700    5.585261    40.217205    1.493351    2.510905    -12.013637    -14.423919    1.088234    -0.744525    -1.207891    -77.374504    -48.560627    -48.986679    76.069397    81.927589    -63.652702    1.899308    -1.248520    -14.938171    1.690804    -3.660934    -1.838213    
12.040888    86.213097    91.886505    26.364010    46.545242    -103.354271    0.583052    -4.544630    0.544378    14.469882    10.924870    -0.869800    5.150689    14.591358    -25.650158    30.569914    2.944648    -23.531784    7.048865    6.699769    -15.508975    -22.128942    21.640961    -68.911636    34.112076    -7.846374    -66.749626    65.016792    -5.649947    -32.130928    9.113043    12.320730    -4.194961    44.269512    -6.756584    25.779757    -9.724450    -27.523949    3.547146    -29.465603    -26.342579    -3.890039    58.085453    -41.044510    31.364660    5.536325    39.921131    2.108738    2.561100    -11.879036    -14.096725    0.815846    -1.042875    -0.906049    -78.795799    -49.556511    -50.729740    102.868210    81.564110    -89.688705    1.965164    -1.685662    -14.596080    1.492929    -5.700206    -1.628037    
11.750007    86.370743    92.028114    26.127768    45.966854    -104.430984    0.778244    -4.744894    0.313927    14.303780    10.755705    -1.071702    5.053279    14.223053    -25.416937    29.886917    3.170974    -23.433533    7.032973    6.838848    -15.264791    -22.688961    21.693136    -67.857513    33.402531    -5.915908    -62.203682    65.241554    -5.627168    -31.176550    9.170836    12.247008    -4.372243    44.090508    -5.805180    26.024567    -9.739842    -27.610338    4.405876    -29.125748    -26.393539    -3.809887    57.138412    -39.676994    30.733803    5.460854    39.612164    2.835514    2.580313    -11.695164    -13.763525    0.518309    -1.387099    -0.575982    -80.290482    -50.631706    -52.650497    122.876663    79.763031    -108.927139    2.020650    -2.145170    -14.267032    1.316129    -7.228745    -1.438629    
11.451006    86.531105    92.191658    25.918146    45.316296    -105.665421    0.985158    -4.965262    0.086952    14.114602    10.571476    -1.268168    4.967558    13.820582    -25.142399    29.136904    3.417961    -23.301977    7.004758    6.991518    -14.998137    -23.283688    21.758272    -66.626328    32.451389    -4.012472    -57.564068    65.413422    -5.659744    -30.304577    9.213734    12.164837    -4.540814    43.867039    -4.719983    26.348438    -9.736235    -27.676853    5.326108    -28.797583    -26.420488    -3.725458    56.133999    -38.230255    30.047745    5.364396    39.291672    3.654952    2.566547    -11.455188    -13.433443    0.201230    -1.782320    -0.223786    -81.865570    -51.779823    -54.771641    135.362259    77.277191    -120.646393    2.066048    -2.612156    -13.956466    1.159574    -8.331884    -1.269721    
11.142943    86.693382    92.377563    25.724133    44.585712    -107.048454    1.198735    -5.200743    -0.136844    13.901396    10.371108    -1.458931    4.894289    13.390307    -24.819834    28.318035    3.679821    -23.127811    6.958889    7.164674    -14.706045    -23.908434    21.840508    -65.217163    31.252596    -2.184501    -52.874172    65.512383    -5.734602    -29.500759    9.241426    12.077481    -4.694589    43.600101    -3.509172    26.753880    -9.713861    -27.720737    6.294644    -28.484016    -26.422127    -3.635405    55.061417    -36.710453    29.305513    5.253014    38.960110    4.547645    2.518282    -11.150452    -13.113355    -0.128540    -2.237582    0.143068    -83.536758    -52.998360    -57.120495    143.197876    74.576035    -127.727478    2.102969    -3.073310    -13.667230    1.021442    -9.091525    -1.119841    
10.825293    86.856369    92.585732    25.533705    43.769741    -108.565498    1.414008    -5.445778    -0.356339    13.663654    10.153679    -1.643342    4.834855    12.940990    -24.444063    27.432333    3.948705    -22.902369    6.890956    7.364473    -14.385825    -24.557802    21.944227    -63.634308    29.816414    -0.482532    -48.195137    65.519417    -5.833823    -28.750311    9.254013    11.988816    -4.826904    43.291889    -2.187227    27.239569    -9.674562    -27.740473    7.294603    -28.187538    -26.398581    -3.539220    53.912647    -35.129143    28.507236    5.133314    38.619774    5.488118    2.434898    -10.772403    -12.808870    -0.462577    -2.761664    0.515369    -85.316002    -54.279957    -59.713398    148.397644    71.887115    -132.195374    2.134037    -3.514244    -13.401340    0.900353    -9.571979    -0.987864    
10.497604    87.018806    92.815628    25.333832    42.865952    -110.197891    1.625261    -5.694671    -0.570328    13.403231    9.919384    -1.819690    4.789783    12.482535    -24.011856    26.485212    4.215374    -22.618790    6.797297    7.595365    -14.035143    -25.224966    22.075413    -61.887466    28.170620    1.049812    -43.598270    65.418472    -5.937792    -28.041481    9.251303    11.903222    -4.931758    42.946995    -0.776376    27.801102    -9.619435    -27.734522    8.308331    -27.911077    -26.349947    -3.436685    52.681969    -33.501457    27.651894    5.011011    38.274658    6.448095    2.317942    -10.313616    -12.524031    -0.790923    -3.362215    0.882193    -87.211357    -55.613663    -62.556004    152.049866    69.324738    -135.148331    2.161754    -3.921554    -13.160650    0.795381    -9.827864    -0.873056    
10.157248    87.180397    93.067833    25.109135    41.869053    -111.934471    1.828738    -5.942822    -0.777810    13.121535    9.667235    -1.987185    4.756176    12.025902    -23.519924    25.485352    4.469165    -22.269810    6.675251    7.862489    -13.649712    -25.903730    22.243887    -59.981354    26.345644    2.387811    -39.131535    65.198868    -6.029456    -27.360050    9.231984    11.824755    -5.004518    42.570335    0.707096    28.433363    -9.549384    -27.703655    9.326571    -27.657137    -26.277653    -3.328839    51.357784    -31.833961    26.730595    4.888536    37.927677    7.405914    2.170667    -9.765660    -12.260728    -1.106716    -4.047457    1.236053    -89.239861    -56.994137    -65.665825    154.762558    66.936203    -137.199661    2.187547    -4.285567    -12.945155    0.705420    -9.901644    -0.774402    
9.805575    87.339142    93.339645    24.847351    40.788242    -113.743484    2.018106    -6.182731    -0.974613    12.825459    9.400173    -2.142503    4.730090    11.584948    -22.972921    24.454887    4.698431    -21.855410    6.524719    8.165941    -13.230496    -26.576719    22.463436    -57.947048    24.404881    3.503398    -34.896721    64.859566    -6.094372    -26.703157    9.194713    11.758036    -5.041708    42.173992    2.226411    29.121384    -9.466157    -27.649464    10.331326    -27.430649    -26.184210    -3.218208    49.946648    -30.153126    25.741686    4.765622    37.586296    8.332832    2.000484    -9.128849    -12.025907    -1.399337    -4.815468    1.565209    -91.389328    -58.398922    -69.016129    156.853226    64.772057    -138.678925    2.210880    -4.593805    -12.756350    0.631065    -9.829232    -0.692693    
9.439185    87.495407    93.631432    24.533466    39.622704    -115.616714    2.190908    -6.409541    -1.158829    12.518599    9.118341    -2.283792    4.709445    11.167994    -22.371655    23.402634    4.891701    -21.373615    6.346316    8.508196    -12.775211    -27.233965    22.756905    -55.793697    22.391459    4.397194    -30.932583    64.404518    -6.123162    -26.056324    9.138650    11.706519    -5.043220    41.766113    3.764643    29.855196    -9.369802    -27.575274    11.324055    -27.231194    -26.073116    -3.105319    48.439579    -28.461815    24.669153    4.637167    37.252609    9.217948    1.815598    -8.399245    -11.826431    -1.662039    -5.671356    1.862198    -93.669624    -59.823505    -72.614891    158.542221    62.833027    -139.807266    2.227994    -4.839667    -12.593785    0.572793    -9.637786    -0.628531    
9.061258    87.646812    93.938202    24.160723    38.394733    -117.515152    2.342375    -6.615828    -1.325176    12.211037    8.829245    -2.406907    4.689122    10.787152    -21.729498    22.358816    5.037107    -20.833965    6.145306    8.884139    -12.289888    -27.856546    23.147818    -53.570904    20.385908    5.065477    -27.341616    63.852829    -6.109967    -25.416269    9.064216    11.674049    -5.011535    41.364483    5.277391    30.611034    -9.263373    -27.485580    12.293783    -27.058634    -25.949478    -2.991464    46.856636    -26.791876    23.514091    4.498410    36.933491    10.037173    1.629458    -7.588230    -11.675196    -1.883123    -6.604000    2.113868    -96.042534    -61.238983    -76.397263    159.942307    61.144646    -140.706192    2.234704    -5.014639    -12.459565    0.531106    -9.355082    -0.582518    
8.666853    87.794418    94.261253    23.717257    37.103924    -119.442413    2.472928    -6.798604    -1.472437    11.906753    8.534181    -2.510980    4.665527    10.446190    -21.048153    21.328398    5.124278    -20.237062    5.923856    9.296308    -11.772718    -28.446049    23.668591    -51.281158    18.419624    5.529609    -24.131914    63.218807    -6.052873    -24.761425    8.970549    11.662868    -4.950857    40.978436    6.756139    31.378229    -9.147495    -27.383230    13.257380    -26.904974    -25.815872    -2.874069    45.186157    -25.136343    22.256153    4.343607    36.626064    10.782639    1.451976    -6.693909    -11.581844    -2.057908    -7.617382    2.314877    -98.512337    -62.648094    -80.368301    161.156082    59.680588    -141.472610    2.227611    -5.118684    -12.354380    0.504279    -8.992545    -0.552766    
8.261806    87.935181    94.593384    23.206877    35.784904    -121.354713    2.580327    -6.952333    -1.595722    11.618052    8.245026    -2.592756    4.633902    10.153250    -20.348183    20.341103    5.143883    -19.601414    5.689837    9.735970    -11.234202    -28.999613    24.334164    -48.987328    16.572254    5.805692    -21.388197    62.538395    -5.953838    -24.090496    8.859190    11.674010    -4.869079    40.630169    8.153219    32.126957    -9.026621    -27.271084    14.208528    -26.764141    -25.675941    -2.751660    43.462425    -23.531118    20.911243    4.173894    36.333580    11.419806    1.296778    -5.739980    -11.558910    -2.178759    -8.685210    2.456311    -101.008057    -64.019196    -84.416962    162.221573    58.451557    -142.150391    2.206470    -5.153258    -12.281652    0.489971    -8.570502    -0.536716    
